<?xml version="1.0" standalone="no"?>
<!DOCTYPE svg PUBLIC "-//W3C//DTD SVG 20010904//EN"
 "http://www.w3.org/TR/2001/REC-SVG-20010904/DTD/svg10.dtd">
<svg version="1.0" xmlns="http://www.w3.org/2000/svg"
 width="776.000000pt" height="776.000000pt" viewBox="0 0 776.000000 776.000000"
 preserveAspectRatio="xMidYMid meet">
<metadata>
Created by potrace 1.14, written by Peter Selinger 2001-2017
</metadata>
<g transform="translate(0.000000,776.000000) scale(0.100000,-0.100000)"
fill="#000000" stroke="none">
<path d="M3826 7695 c-33 -36 -71 -79 -85 -94 -14 -15 -57 -63 -96 -106 -38
-43 -83 -93 -100 -111 -16 -17 -61 -67 -100 -110 -38 -42 -95 -105 -125 -138
-30 -33 -73 -80 -95 -104 -22 -25 -49 -54 -60 -66 -22 -24 -179 -198 -235
-260 -19 -21 -48 -53 -65 -71 -16 -18 -57 -63 -90 -100 -33 -37 -73 -81 -90
-99 -40 -43 -171 -189 -226 -250 -24 -27 -55 -61 -69 -76 -14 -15 -59 -65
-100 -110 -41 -46 -86 -95 -98 -109 -13 -14 -56 -62 -95 -105 -40 -43 -85 -93
-100 -109 -16 -17 -56 -62 -90 -100 -34 -38 -78 -86 -97 -107 -19 -21 -66 -73
-105 -116 -82 -91 -86 -96 -190 -210 -44 -48 -89 -97 -100 -110 -65 -72 -171
-189 -180 -198 -5 -6 -50 -56 -100 -111 -49 -55 -112 -123 -139 -152 -26 -29
-55 -61 -62 -72 -13 -18 -11 -19 37 -23 28 -1 53 0 56 5 2 4 9 5 14 2 5 -4 77
-6 159 -6 l151 0 -25 -27 c-14 -15 -35 -38 -46 -52 -12 -14 -41 -45 -64 -70
-23 -25 -80 -88 -126 -140 -47 -52 -92 -102 -100 -111 -23 -24 -81 -88 -133
-147 l-47 -52 28 -32 c15 -17 38 -43 52 -58 14 -14 54 -60 90 -101 35 -40 74
-83 85 -94 11 -11 49 -54 85 -95 35 -41 78 -89 95 -106 17 -17 46 -50 63 -72
l33 -41 -153 -1 c-180 -1 -229 0 -238 5 -3 2 -12 0 -19 -4 -12 -8 3 -26 109
-141 14 -15 59 -65 100 -110 41 -46 82 -91 90 -100 8 -9 53 -58 100 -110 133
-148 153 -170 185 -204 17 -18 64 -70 105 -116 109 -122 152 -169 180 -199 14
-14 61 -67 105 -116 44 -49 89 -99 100 -111 11 -11 52 -56 91 -100 40 -43 83
-91 95 -105 13 -14 60 -66 104 -115 44 -48 89 -98 100 -109 11 -12 54 -59 95
-105 41 -47 84 -94 95 -106 11 -11 54 -58 95 -104 41 -46 80 -88 85 -94 6 -6
51 -56 100 -111 50 -55 101 -112 115 -126 14 -15 54 -59 90 -99 36 -40 76 -85
90 -100 14 -15 57 -63 95 -105 39 -43 85 -94 104 -114 18 -20 61 -67 95 -105
33 -38 75 -84 91 -102 17 -18 62 -67 100 -110 39 -43 93 -103 121 -133 29 -31
67 -73 86 -94 l34 -38 56 63 c31 35 67 75 80 89 12 14 45 50 71 80 27 30 77
86 112 124 35 39 72 79 82 91 10 12 54 61 98 110 44 48 96 106 115 127 19 21
50 55 69 75 18 21 58 65 88 99 31 34 67 75 82 91 14 15 58 63 96 107 84 94
106 118 153 170 21 22 91 101 157 175 66 74 131 147 145 161 14 14 54 59 90
100 60 67 85 96 167 185 15 17 53 59 83 93 30 35 71 80 90 100 49 53 118 130
164 182 21 24 71 80 110 123 39 43 82 91 95 105 12 14 51 58 86 96 35 39 72
80 83 93 17 19 61 68 187 206 6 6 87 97 180 201 94 105 178 199 187 209 10 11
16 21 14 23 -2 2 -32 3 -67 3 -35 0 -73 -1 -84 -1 -11 0 -42 0 -70 0 -27 0
-57 0 -65 0 -8 1 -36 1 -62 1 -52 0 -55 2 -35 22 14 14 71 77 182 203 39 43
79 89 91 102 12 12 52 58 90 100 38 43 78 87 90 99 11 12 30 34 42 49 l22 28
-52 56 c-50 53 -195 213 -228 251 -8 9 -49 55 -90 100 -41 46 -79 88 -85 95
-5 6 -28 30 -49 53 l-39 41 203 0 c111 0 204 2 207 4 2 3 -6 16 -19 29 -13 13
-59 64 -103 113 -44 50 -94 106 -112 125 -18 19 -40 44 -50 56 -14 17 -132
147 -178 198 -6 6 -53 58 -104 116 -52 58 -117 130 -145 161 -28 30 -80 88
-116 129 -36 40 -70 78 -75 84 -6 6 -55 61 -110 121 -55 61 -104 115 -110 121
-8 9 -68 76 -140 158 -5 6 -32 36 -60 66 -27 31 -84 93 -125 139 -41 47 -88
99 -105 117 -16 17 -43 47 -59 65 -43 50 -187 209 -216 240 -14 15 -52 57 -85
94 -33 38 -71 80 -84 94 -13 14 -53 59 -90 100 -36 41 -77 86 -91 101 -46 51
-148 165 -167 187 -27 30 -151 169 -192 212 -28 31 -121 134 -171 191 -8 9
-47 52 -86 96 -40 43 -89 99 -111 122 l-39 44 -58 -67z m248 -265 c71 -80 154
-172 185 -206 31 -33 85 -94 121 -134 36 -40 74 -83 85 -95 11 -11 54 -59 95
-105 41 -46 82 -92 90 -101 8 -8 49 -53 90 -100 41 -46 95 -106 120 -134 25
-27 61 -68 81 -90 20 -22 47 -52 60 -66 13 -15 56 -62 94 -105 39 -43 79 -88
90 -100 11 -11 51 -56 90 -100 38 -43 77 -86 85 -94 8 -8 51 -55 94 -105 44
-49 89 -99 100 -111 12 -11 45 -48 75 -82 29 -34 65 -74 80 -90 14 -15 58 -63
96 -106 39 -44 75 -84 80 -90 6 -6 51 -56 100 -111 49 -55 92 -102 95 -105 3
-3 46 -50 95 -105 49 -55 94 -105 100 -111 5 -6 42 -46 80 -89 39 -43 79 -89
90 -101 59 -64 163 -180 183 -203 l22 -26 -32 -5 c-18 -3 -34 -3 -35 0 -2 3
-57 4 -122 3 l-119 -2 -44 50 c-23 28 -59 67 -78 88 -19 20 -66 72 -105 116
-38 44 -77 86 -86 95 -8 8 -49 53 -90 99 -41 46 -87 99 -104 116 -30 31 -133
146 -216 239 -24 27 -57 63 -73 80 -15 17 -60 66 -100 110 -39 44 -82 92 -96
107 -44 47 -93 102 -170 188 -41 47 -86 96 -100 111 -14 15 -61 66 -105 115
-44 49 -90 100 -102 113 -13 14 -58 63 -100 110 -122 135 -186 206 -198 218
-5 6 -38 42 -71 80 -34 38 -72 81 -85 95 -13 14 -40 43 -59 65 -32 35 -183
202 -270 298 -19 21 -44 48 -55 60 -11 12 -49 55 -85 95 l-65 73 -39 -44 c-71
-80 -181 -201 -206 -228 -14 -15 -54 -60 -90 -100 -36 -39 -76 -84 -90 -99
-14 -15 -54 -60 -90 -100 -36 -40 -85 -95 -110 -121 -25 -27 -70 -77 -100
-111 -30 -34 -68 -76 -84 -93 -16 -17 -59 -64 -95 -105 -36 -40 -79 -88 -96
-106 -16 -17 -58 -63 -91 -101 -34 -38 -72 -81 -85 -95 -45 -48 -182 -199
-199 -219 -10 -11 -53 -59 -96 -107 -44 -47 -87 -95 -97 -107 -10 -12 -53 -59
-96 -106 -43 -47 -125 -137 -182 -200 -57 -63 -113 -125 -124 -136 -11 -12
-44 -48 -72 -81 -29 -33 -65 -73 -80 -89 -16 -17 -50 -54 -77 -84 -77 -86
-208 -230 -243 -268 -18 -18 -38 -30 -44 -26 -6 3 -46 6 -88 5 -89 -2 -85 -2
-156 -1 l-56 1 27 32 c15 18 61 70 103 116 116 127 121 133 196 216 39 43 84
93 101 111 17 19 59 65 94 104 35 39 77 86 94 104 17 18 65 70 106 116 41 46
80 88 85 94 20 21 293 324 321 356 16 18 46 51 68 74 21 22 66 72 100 110 33
37 70 78 81 90 11 12 56 62 100 111 44 49 97 107 118 129 21 22 61 67 90 100
29 32 63 71 77 85 14 14 70 76 124 136 104 116 237 263 321 355 28 30 55 59
60 66 34 37 155 171 180 199 31 33 169 185 195 215 8 9 44 49 79 88 l64 72 31
-33 c17 -18 89 -97 160 -177z m-85 -386 c25 -27 83 -92 131 -144 48 -52 113
-124 145 -160 33 -36 64 -70 70 -76 5 -6 37 -41 70 -79 33 -37 74 -82 90 -100
17 -17 62 -67 100 -110 39 -43 84 -93 100 -110 17 -18 58 -64 91 -101 34 -38
72 -81 85 -95 13 -14 48 -52 78 -85 82 -90 204 -226 221 -244 8 -9 69 -76 135
-150 66 -74 127 -141 135 -150 8 -9 53 -58 100 -110 47 -51 95 -105 107 -118
20 -21 97 -107 213 -235 19 -21 49 -54 65 -72 17 -18 46 -50 65 -72 121 -134
217 -240 228 -251 18 -20 16 -21 -30 -21 -24 0 -52 -1 -63 -1 -11 0 -85 0
-164 0 -102 1 -146 -3 -152 -11 -6 -11 -3 -59 5 -66 2 -3 63 -3 149 -2 194 3
348 -4 359 -16 7 -7 42 -46 78 -85 36 -40 76 -85 90 -100 14 -15 50 -55 80
-89 30 -34 75 -84 100 -110 80 -86 175 -194 175 -201 0 -6 -71 -89 -140 -164
-11 -12 -47 -53 -80 -90 -33 -37 -69 -78 -80 -90 -11 -12 -54 -60 -95 -107
-41 -46 -90 -98 -108 -116 l-33 -33 -167 0 c-92 0 -205 -1 -252 -3 l-85 -2 2
-34 c1 -18 4 -35 6 -38 3 -2 69 -4 148 -3 156 1 161 1 232 -1 l48 -1 -58 -67
c-78 -89 -111 -126 -153 -171 -19 -20 -62 -68 -95 -106 -33 -37 -71 -79 -84
-93 -30 -33 -140 -157 -164 -185 -22 -25 -142 -159 -175 -196 -13 -14 -47 -52
-75 -84 -29 -33 -63 -72 -77 -86 -14 -14 -71 -78 -127 -141 -55 -62 -109 -123
-120 -134 -10 -11 -52 -58 -93 -105 -41 -47 -79 -90 -85 -96 -15 -17 -154
-172 -209 -234 -51 -56 -74 -82 -123 -136 -15 -17 -59 -67 -98 -110 -38 -43
-92 -103 -120 -134 -27 -31 -81 -91 -120 -134 -38 -44 -75 -84 -80 -90 -18
-20 -180 -200 -210 -235 -17 -18 -44 -49 -61 -67 l-31 -34 -54 62 c-61 70
-127 144 -149 168 -8 9 -69 76 -135 150 -66 74 -134 151 -152 170 -17 19 -40
44 -50 56 -32 37 -147 166 -173 194 -14 15 -54 60 -90 101 -87 98 -162 182
-174 195 -6 6 -36 39 -66 73 -30 35 -68 77 -85 95 -25 28 -123 137 -175 196
-55 62 -140 158 -165 185 -42 47 -148 165 -176 198 -13 15 -40 45 -59 65 -19
21 -64 71 -100 112 -36 40 -76 85 -90 101 -54 59 -140 155 -157 175 -17 19
-100 113 -213 239 -25 27 -56 62 -69 77 l-23 27 168 0 c280 0 251 -5 249 39
-1 36 -2 37 -40 39 -98 3 -217 5 -242 4 -27 -2 -51 -2 -127 -1 -90 1 -73 -10
-196 129 -36 41 -76 85 -90 100 -14 14 -59 64 -100 111 -41 47 -79 90 -85 96
-99 110 -140 158 -140 164 0 6 96 116 165 190 8 8 55 60 105 115 49 55 94 105
100 111 5 7 45 50 88 97 l78 86 235 0 c129 0 239 3 244 6 4 3 7 20 6 38 -2 28
-7 32 -32 35 -29 2 -108 3 -122 1 -4 -1 -9 -1 -12 0 -17 7 -110 5 -110 -2 0
-5 -4 -6 -8 -3 -5 3 -34 6 -65 7 -31 1 -57 4 -57 6 0 2 17 20 38 42 20 21 58
63 84 92 25 30 63 72 85 95 21 22 67 74 103 113 36 40 74 83 85 95 11 12 42
47 69 77 27 30 86 95 133 145 46 50 92 101 103 114 26 30 149 166 180 200 14
15 57 62 95 105 39 44 79 89 90 101 20 22 162 178 200 220 11 12 37 41 59 65
55 63 196 218 231 256 17 17 57 62 90 100 33 37 81 89 106 115 25 26 44 48 43
48 -2 0 7 10 19 23 12 13 45 48 72 78 28 30 88 97 135 149 47 51 94 104 105
116 11 12 49 55 85 95 36 40 81 90 100 110 l35 38 30 -33 c17 -17 50 -54 74
-82z m-2657 -3845 l87 -1 143 -160 c79 -88 154 -173 168 -188 46 -49 158 -176
240 -270 30 -35 62 -70 71 -79 9 -9 54 -59 100 -111 46 -52 93 -105 104 -116
23 -25 123 -137 155 -174 18 -21 145 -161 175 -194 6 -6 44 -49 85 -96 88
-100 85 -96 131 -146 19 -21 75 -84 124 -139 49 -55 93 -105 99 -111 6 -6 40
-44 76 -85 36 -40 74 -83 85 -95 11 -12 49 -55 85 -95 36 -40 119 -134 186
-209 66 -74 134 -150 150 -169 16 -18 40 -45 54 -60 14 -15 59 -65 100 -111
41 -46 89 -99 105 -118 l30 -34 60 68 c33 37 69 78 80 90 11 12 47 53 80 90
33 37 74 83 91 101 17 18 44 47 59 65 26 32 132 151 185 208 14 15 52 58 85
95 33 37 69 79 81 91 127 142 162 180 177 198 36 41 132 149 142 160 6 6 71
79 145 161 73 83 146 164 161 180 40 44 68 75 134 151 69 78 65 73 130 144 28
30 79 88 115 129 36 40 76 85 90 100 25 27 111 124 210 236 29 33 73 83 99
111 40 43 155 172 201 224 8 9 44 49 79 88 l63 71 149 -1 c82 0 149 -2 149 -3
0 -2 -12 -16 -27 -32 -16 -17 -57 -63 -93 -103 -36 -40 -76 -85 -90 -101 -118
-130 -162 -177 -179 -198 -30 -35 -153 -172 -176 -196 -11 -11 -56 -61 -100
-110 -44 -50 -82 -92 -85 -95 -3 -3 -41 -45 -85 -95 -44 -49 -87 -96 -95 -105
-8 -9 -49 -54 -90 -100 -111 -124 -109 -122 -185 -206 -38 -43 -86 -96 -105
-117 -19 -22 -46 -51 -60 -66 -14 -16 -59 -66 -100 -112 -117 -130 -163 -181
-190 -210 -14 -15 -34 -37 -45 -50 -24 -28 -97 -109 -204 -228 -99 -108 -104
-115 -181 -201 -36 -40 -74 -83 -85 -95 -41 -46 -181 -200 -205 -226 -14 -15
-52 -58 -85 -95 -33 -38 -72 -81 -87 -97 -14 -15 -53 -58 -85 -94 -32 -36 -74
-83 -94 -105 l-36 -38 -68 77 c-38 43 -74 83 -79 88 -6 6 -47 50 -91 100 -44
49 -89 99 -100 111 -11 11 -51 56 -90 99 -38 43 -81 90 -95 104 -14 14 -61 67
-105 116 -44 49 -89 99 -100 111 -11 11 -49 54 -85 94 -36 40 -78 87 -95 105
-16 17 -61 67 -100 110 -38 43 -75 83 -80 89 -19 20 -129 140 -205 225 -41 46
-84 93 -95 105 -48 54 -182 201 -205 226 -14 15 -54 59 -89 99 -35 39 -80 88
-99 109 -56 60 -95 103 -153 168 -29 33 -90 100 -134 148 -44 49 -87 97 -95
106 -14 15 -138 152 -185 204 -11 12 -57 62 -102 112 -45 49 -91 100 -103 114
-12 14 -56 63 -99 110 -43 47 -91 100 -106 118 l-28 34 36 -3 c20 -2 38 -1 41
2 3 3 20 4 38 2 18 -2 72 -4 120 -4z"/>
<path d="M3855 6536 c-17 -18 -70 -77 -120 -131 -104 -113 -110 -119 -230
-250 -49 -54 -99 -108 -110 -121 -48 -53 -201 -219 -215 -233 -16 -17 -219
-238 -280 -305 -19 -22 -48 -54 -65 -71 -16 -18 -73 -79 -125 -136 -52 -56
-106 -115 -120 -130 -14 -15 -63 -69 -110 -120 -47 -51 -102 -111 -123 -133
-21 -23 -65 -70 -97 -106 -32 -36 -76 -83 -97 -106 -21 -22 -75 -81 -119 -130
-45 -49 -97 -105 -115 -124 -19 -20 -72 -78 -119 -129 -47 -51 -96 -105 -109
-120 -13 -14 -53 -57 -88 -95 -95 -102 -108 -138 -88 -243 3 -18 9 -33 13 -33
4 0 15 -12 24 -27 10 -16 32 -44 50 -63 18 -19 98 -109 177 -200 80 -91 152
-172 160 -181 9 -9 34 -38 56 -63 22 -26 54 -62 70 -80 17 -18 53 -59 80 -91
28 -32 55 -63 60 -69 19 -21 240 -271 300 -341 33 -38 67 -76 75 -85 8 -8 60
-67 115 -130 55 -63 104 -120 110 -126 5 -6 33 -37 60 -68 28 -32 61 -70 75
-85 14 -15 48 -54 77 -87 28 -32 60 -68 70 -80 101 -116 132 -152 158 -180 17
-18 50 -56 75 -85 25 -29 54 -62 65 -74 11 -11 47 -52 80 -90 33 -39 65 -75
70 -81 6 -6 35 -39 65 -74 30 -34 60 -68 65 -74 6 -6 41 -47 80 -91 38 -44 84
-94 101 -112 l31 -32 59 66 c32 36 66 74 74 83 53 61 139 157 160 180 14 15
54 60 90 100 36 41 74 84 85 96 39 43 150 167 166 185 8 9 45 50 81 91 37 40
75 82 85 94 38 45 149 168 163 183 9 9 47 52 85 96 39 44 75 84 81 90 6 5 82
91 170 190 87 99 166 187 174 195 8 8 47 51 85 95 39 44 89 100 112 125 23 25
50 54 60 66 59 69 153 174 186 207 20 22 37 41 37 42 0 2 22 28 49 57 27 29
72 80 101 113 80 91 181 204 215 240 58 63 76 123 54 179 -11 26 -89 123 -164
202 -22 23 -138 151 -201 223 -39 44 -49 55 -139 153 -62 68 -188 207 -212
235 -10 11 -54 60 -98 108 -102 112 -116 127 -200 221 -38 42 -85 93 -103 112
-18 20 -47 52 -65 72 -28 32 -129 144 -207 230 -14 15 -54 60 -90 100 -101
112 -110 122 -187 207 -40 43 -80 88 -90 100 -10 11 -56 62 -103 113 -47 51
-93 102 -103 113 -24 28 -150 167 -213 236 -28 31 -68 74 -87 96 -20 22 -53
59 -74 82 l-38 42 -30 -33z m165 -505 c36 -40 76 -85 90 -100 14 -15 63 -69
110 -121 47 -51 95 -105 107 -118 52 -56 172 -190 209 -231 21 -25 48 -54 59
-66 19 -20 121 -133 211 -234 21 -23 56 -62 78 -85 21 -22 61 -67 90 -99 28
-33 67 -76 86 -96 19 -21 67 -73 105 -116 39 -42 81 -90 95 -105 14 -15 57
-62 95 -105 39 -43 84 -93 101 -111 17 -18 60 -66 95 -105 35 -40 73 -82 84
-93 11 -12 52 -57 90 -100 39 -44 84 -94 100 -111 17 -17 48 -51 69 -76 22
-24 48 -53 58 -65 18 -21 18 -22 -9 -51 -15 -16 -56 -61 -89 -99 -34 -38 -73
-81 -85 -95 -13 -14 -53 -58 -89 -99 -36 -40 -76 -85 -90 -100 -24 -27 -110
-123 -147 -166 -10 -12 -40 -46 -68 -76 -27 -30 -80 -88 -116 -129 -36 -41
-126 -142 -200 -224 -74 -83 -150 -168 -169 -189 -19 -22 -47 -52 -61 -68 -15
-16 -44 -49 -65 -74 -22 -25 -52 -60 -69 -77 -29 -31 -143 -158 -182 -203 -22
-26 -150 -168 -182 -203 -13 -14 -46 -52 -75 -85 -28 -32 -60 -68 -71 -80 -11
-12 -51 -58 -90 -101 -228 -255 -212 -239 -222 -222 -4 8 -37 47 -73 88 -36
40 -81 91 -101 113 -20 23 -74 84 -119 136 -79 90 -182 207 -225 255 -11 13
-40 46 -65 75 -25 29 -58 67 -75 85 -16 18 -43 48 -59 66 -16 19 -52 61 -82
94 -29 33 -61 69 -71 81 -15 18 -53 60 -158 180 -57 65 -133 150 -155 174 -14
16 -32 36 -40 46 -9 11 -36 42 -60 69 -25 28 -72 82 -105 120 -33 38 -82 94
-110 125 -27 31 -79 89 -115 130 -36 41 -85 97 -110 125 -25 28 -70 79 -100
114 -54 62 -83 95 -194 220 l-57 64 28 30 c15 17 37 40 48 52 71 77 213 231
227 248 15 17 134 146 223 241 17 18 66 72 110 120 44 49 94 103 110 121 17
17 69 74 116 126 48 52 97 106 110 120 13 14 65 69 114 124 50 54 99 108 110
119 11 12 65 71 120 131 55 61 111 122 125 136 31 33 199 215 222 242 10 10
58 63 108 117 50 54 98 106 108 117 9 11 60 66 111 122 l95 102 35 -38 c20
-22 65 -72 101 -112z"/>
<path d="M2959 4870 c-9 -6 -10 -100 0 -101 3 0 13 -2 21 -4 8 -2 28 -6 45 -9
43 -8 137 -48 157 -66 40 -37 41 -47 42 -835 1 -418 -1 -779 -5 -803 -3 -24
-15 -55 -26 -70 -32 -44 -55 -51 -203 -67 -14 -2 -28 -3 -32 -4 -4 -1 -7 -25
-5 -53 l2 -53 427 0 426 0 4 43 c3 43 -7 76 -20 68 -6 -4 -89 12 -152 29 -8 2
-18 4 -22 4 -12 2 -55 45 -68 71 -11 20 -14 105 -15 390 0 201 1 375 3 388 6
34 25 27 77 -30 26 -29 66 -74 89 -99 56 -62 92 -103 151 -174 28 -33 55 -65
60 -71 6 -6 19 -23 30 -39 11 -15 27 -35 36 -44 8 -9 38 -45 65 -81 27 -36 52
-67 55 -70 3 -3 32 -42 65 -87 75 -103 77 -106 149 -211 l60 -87 285 1 c157 1
287 2 290 3 10 2 5 101 -5 102 -124 10 -215 49 -311 132 -32 28 -154 171 -271
317 -117 146 -228 283 -246 305 -124 145 -234 272 -245 284 -11 11 7 34 112
140 69 69 133 135 143 147 19 22 128 144 203 227 25 27 53 59 63 71 106 122
131 145 189 174 59 28 143 51 208 56 16 1 33 5 36 9 8 8 12 97 4 98 -30 4
-755 2 -762 -2 -11 -7 -18 -98 -8 -100 3 -1 23 -3 45 -4 57 -5 127 -26 148
-44 12 -10 17 -26 15 -45 -4 -37 -40 -114 -68 -144 -11 -11 -20 -25 -20 -31 0
-5 -3 -11 -8 -13 -4 -1 -23 -23 -42 -48 -59 -75 -110 -130 -250 -271 -206
-206 -331 -313 -343 -292 -2 5 -3 177 -2 384 2 339 4 379 20 413 23 48 61 66
168 82 21 3 46 7 55 9 9 2 22 4 27 4 6 1 9 23 7 53 l-4 53 -420 0 c-231 0
-424 -2 -429 -5z"/>
</g>
</svg>
