<svg xmlns="http://www.w3.org/2000/svg" xmlns:xlink="http://www.w3.org/1999/xlink" viewBox="0 0 307.38 387.97"><defs><style>.cls-1,.cls-2{fill:none;stroke:#bf884b;stroke-miterlimit:10;}.cls-1{stroke-width:4px;}.cls-2{stroke-width:13px;}.cls-3{fill:url(#Dégradé_sans_nom_121);}.cls-4{font-size:149px;fill:#bf884b;font-family:Georgia;}</style><radialGradient id="Dégradé_sans_nom_121" cx="345.26" cy="160.91" r="0.5" gradientUnits="userSpaceOnUse"><stop offset="0.12"/><stop offset="0.91"/></radialGradient></defs><title>logo2Fichier 4</title><g id="Calque_2" data-name="Calque 2"><g id="Calque_1-2" data-name="Calque 1"><polyline class="cls-1" points="56.69 161.99 9.69 161.99 153.69 2.98 296.69 161.99 249.69 161.99"/><polyline class="cls-1" points="56.69 225.99 9.69 225.99 153.69 384.99 296.69 225.99 249.69 225.99"/><polygon class="cls-1" points="153.69 362.99 2.69 193.99 153.69 26.98 304.69 193.99 153.69 362.99"/><path class="cls-2" d="M153.69,320.71,42.49,194.25a3,3,0,0,1,0-4l111.19-121,112.4,124.31a1,1,0,0,1,0,1.34Z"/><text/><path class="cls-3" d="M207,247.63H178.05a314.71,314.71,0,0,0-18.59-25.72Q149.23,209.15,138,197.14h-1.89v35.94a9.72,9.72,0,0,0,.91,4.29,6.73,6.73,0,0,0,3.31,3.06,27.8,27.8,0,0,0,4.33,1.23,28.44,28.44,0,0,0,5.27.8v5.17H107.11v-5.17L112,242a16,16,0,0,0,4.52-.88,6.2,6.2,0,0,0,3.16-2.8,9.37,9.37,0,0,0,1-4.47v-74.5a10.29,10.29,0,0,0-.83-4.29,6.47,6.47,0,0,0-3.31-3,26.9,26.9,0,0,0-4.66-1.67,25.27,25.27,0,0,0-4.73-.87v-5.17H150v5.17a44.39,44.39,0,0,0-9.6,1.74,5.34,5.34,0,0,0-3.35,2.91,11.2,11.2,0,0,0-.87,4.44V194.3h1.45q6.56-5.53,12.88-11.53t11.5-12a114.63,114.63,0,0,0,8.4-10.59q2.65-4,2.66-7a2,2,0,0,0-1.35-1.78,14.51,14.51,0,0,0-3.09-1.13,25.71,25.71,0,0,0-3.64-.54l-2.62-.18v-5.17H201v5.17c-.15,0-.47,0-.95.07s-1,.1-1.67.14a14.34,14.34,0,0,0-2,.3c-.68.14-1.55.31-2.62.5a26.7,26.7,0,0,0-5.27,1.86,14.07,14.07,0,0,0-4.47,3.16q-7.49,8.52-15.62,17.62t-16.13,16.6q11.07,12.51,18.32,21.52T186,230.6a35.44,35.44,0,0,0,6.23,6.3,39.27,39.27,0,0,0,5.36,3.53,17.4,17.4,0,0,0,4.7,1.45,35.07,35.07,0,0,0,4.71.58Z"/><text class="cls-4" transform="translate(99.69 247.63)">K</text></g></g></svg>